<svg width="177" height="50" viewBox="0 0 177 50" fill="none" xmlns="http://www.w3.org/2000/svg">
<g clip-path="url(#clip0_298_219)">
<path d="M88.0359 49.4096C101.644 49.4096 112.675 38.3489 112.675 24.7048C112.675 11.0606 101.644 -6.10352e-05 88.0359 -6.10352e-05C74.4281 -6.10352e-05 63.3967 11.0606 63.3967 24.7048C63.3967 38.3489 74.4281 49.4096 88.0359 49.4096Z" fill="white"/>
<path d="M76.4394 12.6763C75.7933 12.7688 75.2397 13.2314 74.809 13.6941C73.6709 15.0203 73.0865 16.9017 73.148 18.6597C73.2095 19.9859 73.7939 21.8982 75.455 21.8673C76.224 21.8365 76.9008 21.3739 77.3929 20.8187C78.0389 20.0785 78.4695 19.184 78.7464 18.2587C79.2078 16.7166 79.3616 14.6502 78.2542 13.3548C77.8236 12.7996 77.1469 12.5529 76.4394 12.6763Z" fill="#202222"/>
<path d="M91.7888 11.0108C90.8973 10.3322 89.7893 10.0855 88.7127 10.2397C87.6362 10.3939 86.6825 11.0416 85.9753 11.8435C84.2837 13.7866 83.7608 16.6858 84.4372 19.1532C85.0216 21.2813 86.7447 23.4094 89.1742 23.2552C91.6045 23.101 93.2961 20.9112 93.8805 18.7213C93.9734 18.4129 94.0348 18.1045 94.0656 17.7961C94.4341 15.3287 93.8498 12.5837 91.7888 11.0108Z" fill="#202222"/>
<path d="M96.3107 28.9609C94.5577 28.9918 92.7731 29.0535 91.0201 29.0843C91.0815 28.8067 91.1123 28.5599 91.143 28.2824C91.1737 27.9431 90.8359 27.6655 90.5279 27.6655C90.1586 27.6655 89.9436 27.9431 89.9129 28.2824C89.8514 28.8992 89.7278 29.732 89.2356 30.1638C88.9899 30.3488 88.6512 30.4105 88.3441 30.4723C88.0055 30.5339 87.6668 30.5956 87.329 30.503C86.4674 30.2872 85.8831 29.5778 85.5444 28.8067C85.4523 28.5599 85.0829 28.4675 84.8373 28.5292C84.56 28.5908 84.4065 28.8376 84.3758 29.1151C84.345 29.5778 83.8836 29.9787 83.5449 30.2255C83.0834 30.5647 82.4991 30.6265 81.9762 30.4105C81.0847 30.0713 80.9917 28.9609 81.1154 28.1591C81.1768 27.8506 81.0532 27.5422 80.746 27.4188C80.4691 27.3263 80.1 27.388 79.9769 27.6655C79.5462 28.5908 78.8388 30.1946 77.5468 30.0404C76.2549 29.8862 75.9472 28.1899 75.7319 27.1721C75.5781 26.401 74.3785 26.7095 74.5323 27.5113C74.5938 27.8814 74.6861 28.2515 74.8091 28.6217C73.3019 28.5599 71.7638 28.4675 70.2566 28.4057C69.9182 28.3749 69.6414 28.7142 69.6414 29.0226C69.6414 29.3619 69.9182 29.6394 70.2566 29.6394C71.9484 29.732 73.671 29.8245 75.3628 29.8862C75.7934 30.5647 76.3779 31.1199 77.27 31.2433C78.4696 31.4283 79.3309 30.8115 80.0077 29.9479C80.2538 30.7189 80.7767 31.3358 81.669 31.6134C82.5298 31.8602 83.4528 31.7368 84.1608 31.2124C84.4679 30.9966 84.7758 30.7189 85.0215 30.4105C85.6059 31.1199 86.406 31.6134 87.2983 31.7368C87.7905 31.7984 88.3134 31.7367 88.8056 31.6134C89.2978 31.49 89.7585 31.305 90.0971 30.9657C90.2814 30.7807 90.4358 30.5339 90.5586 30.318C92.466 30.2872 94.3419 30.2255 96.2493 30.1946C97.1109 30.1946 97.1109 28.9609 96.3107 28.9609Z" fill="#202222"/>
<path d="M8.0275 35.1295C6.92011 35.3454 5.87424 35.5305 4.8899 35.7464C4.52077 35.8389 4.21317 35.9006 3.96708 35.9315C3.72099 35.9623 3.50567 35.9315 3.3211 35.9006C3.13654 35.8697 2.98274 35.8081 2.8597 35.7464C2.73665 35.6847 2.61361 35.5922 2.49057 35.5305C2.21372 35.3454 1.96763 35.1604 1.72155 34.9753C1.47546 34.7903 1.19861 34.5436 0.798727 34.2351C0.52188 33.9884 0.306554 33.7416 0.15275 33.4641C-0.00105335 33.1864 -0.0318145 32.8163 0.0297069 32.4154C0.0912285 31.7677 0.152749 30.9967 0.275793 30.1022C0.398835 29.2078 0.521878 28.2517 0.706443 27.2339C0.860244 26.2161 1.04481 25.1366 1.26013 24.0263C1.4447 22.9159 1.66003 21.8364 1.90611 20.7261C2.1522 19.6158 2.36752 18.5672 2.61361 17.5493C2.85969 16.5315 3.07502 15.6062 3.3211 14.7735C3.47491 14.28 3.69023 14.0024 3.96708 13.9099C4.21317 13.8174 4.61306 13.8482 5.13599 14.0024C5.65892 14.1258 6.21261 14.3109 6.79707 14.5576C7.38152 14.8043 7.90446 15.0819 8.36588 15.3595C8.7965 15.6679 9.07339 15.9455 9.16561 16.1922C9.25791 16.439 9.25791 16.7474 9.1041 17.1792C8.76578 18.1662 8.42738 19.2765 8.08898 20.4794C7.75065 21.6822 7.41228 22.9159 7.07391 24.1496C6.73555 25.4141 6.39718 26.6787 6.12033 27.9124C5.81272 29.177 5.53588 30.3798 5.25903 31.521C6.02805 31.3976 6.73555 31.2742 7.38152 31.2125C8.05826 31.1509 8.76578 31.0892 9.5348 31.0275C9.99622 30.9967 10.3653 31.0275 10.5806 31.12C10.8267 31.2125 11.0421 31.4284 11.2266 31.7369C11.4112 32.0453 11.5958 32.3537 11.7188 32.6313C11.8419 32.9398 11.9341 33.2482 11.9956 33.5257C12.1187 33.865 12.1495 34.1117 12.0879 34.2351C12.0264 34.3585 11.7496 34.451 11.2266 34.5436C10.2115 34.7286 9.1349 34.9137 8.0275 35.1295Z" fill="white"/>
<path d="M27.8066 17.5185C28.0835 18.1045 28.2988 18.7522 28.4526 19.4616C28.6372 20.6645 28.6679 21.9907 28.5757 23.4094C28.4834 24.8282 28.2373 26.2469 27.8374 27.6348C27.4375 29.0228 26.9145 30.349 26.2378 31.6136C25.5611 32.8473 24.7306 33.9268 23.7769 34.7903C23.1002 35.3147 22.4235 35.6539 21.6852 35.839C20.947 36.024 20.1164 36.0549 19.1628 35.9623C18.5476 35.9007 17.9017 35.7773 17.225 35.6539C16.5482 35.4997 15.9637 35.3147 15.41 35.0063C14.9486 34.7595 14.518 34.4819 14.0874 34.1118C13.6567 33.7417 13.3184 33.3407 13.0722 32.8781C12.6723 32.107 12.3647 31.2434 12.1801 30.2873C11.9956 29.3312 11.9033 28.3134 11.9033 27.2647C11.9341 26.2161 12.0571 25.1058 12.2724 24.0263C12.5185 22.916 12.8569 21.8365 13.2876 20.7879C13.749 19.7392 14.2719 18.7522 14.9486 17.827C15.5946 16.9017 16.3636 16.0381 17.225 15.2979C17.8094 14.8352 18.4861 14.4959 19.2859 14.2801C20.0857 14.0333 20.8547 14.0025 21.593 14.0951C22.5465 14.2493 23.4386 14.4652 24.2999 14.8044C25.1612 15.1128 25.8687 15.5138 26.4224 15.9455C27.0683 16.3774 27.5298 16.9326 27.8066 17.5185ZM21.2546 18.8139C20.824 19.2149 20.3933 19.7701 19.9626 20.4795C19.532 21.1888 19.1321 21.9598 18.763 22.7926C18.3938 23.6562 18.0862 24.4581 17.8709 25.26C17.6248 26.031 17.471 26.8638 17.3788 27.6966C17.2865 28.5293 17.2557 29.3004 17.2865 30.0406C17.3172 30.75 17.4403 31.3668 17.6248 31.8911C17.8094 32.4154 18.117 32.7239 18.4861 32.8473C18.8245 32.9706 19.1936 32.8781 19.5935 32.6313C19.9626 32.3538 20.3625 31.9528 20.7317 31.3977C21.1008 30.8425 21.4699 30.164 21.8083 29.3621C22.1466 28.5601 22.4542 27.6966 22.7003 26.7404C22.9156 25.9694 23.1002 25.1058 23.2232 24.1497C23.3463 23.2244 23.4078 22.3299 23.4078 21.5281C23.4078 20.6953 23.3155 19.9859 23.1617 19.4C23.0079 18.8139 22.7618 18.4747 22.4235 18.3513C22.0851 18.2587 21.6852 18.3821 21.2546 18.8139Z" fill="white"/>
<path d="M41.1876 20.9728C41.6797 18.8756 42.1719 16.9325 42.6333 15.1436C42.7563 14.6501 42.9717 14.3725 43.2485 14.2492C43.5253 14.1258 43.9252 14.1566 44.4482 14.28C44.6943 14.3416 44.9096 14.4034 45.1249 14.4651C45.3095 14.5267 45.5248 14.5884 45.7094 14.6501C45.8939 14.7426 46.1093 14.8352 46.3246 14.9585C46.5399 15.0819 46.786 15.2361 47.0628 15.4211C47.555 15.7296 47.8011 16.038 47.8626 16.3156C47.9242 16.624 47.8934 16.9941 47.7396 17.4259C47.3704 18.6596 46.9705 20.0475 46.5399 21.6205C46.14 23.1935 45.7094 24.7665 45.3095 26.3703C44.9096 27.9741 44.5097 29.5471 44.1406 31.0892C43.7714 32.6313 43.4638 33.9884 43.187 35.1295C43.0947 35.7464 42.6025 35.9623 41.7105 35.7773C40.9415 35.623 40.1724 35.4072 39.3726 35.1295C38.6344 34.852 38.1423 34.3585 37.8347 33.6491C37.5886 33.1248 37.3733 32.5388 37.1272 31.8603C36.881 31.1817 36.6349 30.4415 36.3888 29.6704C36.1428 28.8685 35.8967 28.0666 35.6506 27.203C35.4045 26.3394 35.1584 25.4759 34.9431 24.6122C34.7586 25.6301 34.574 26.6787 34.3894 27.6965C34.2049 28.7143 34.0203 29.7013 33.8358 30.6573C33.6512 31.5826 33.4974 32.4771 33.3743 33.279C33.2205 34.0809 33.1282 34.7903 33.0359 35.3763C32.9744 35.6538 32.8514 35.8389 32.7283 35.9006C32.5745 35.9623 32.2977 35.9623 31.867 35.8389C31.4672 35.7464 31.0673 35.623 30.6674 35.5305C30.2675 35.4379 29.8676 35.2529 29.4985 35.0062C29.1293 34.8211 28.8832 34.6052 28.7602 34.3585C28.6371 34.1117 28.5756 33.7725 28.6372 33.3406C28.6679 32.878 28.7294 32.2611 28.7909 31.4284C28.8525 30.5957 28.9755 29.6704 29.0985 28.5909C29.2216 27.5423 29.3754 26.4011 29.5292 25.1982C29.6831 23.9954 29.8676 22.7926 30.0522 21.5897C30.2368 20.3868 30.4213 19.2457 30.6059 18.1353C30.7904 17.025 30.975 16.038 31.1596 15.1745C31.2826 14.6809 31.4672 14.3725 31.7748 14.2492C32.0824 14.1258 32.4822 14.1258 33.0052 14.2492C33.6204 14.4342 34.2049 14.6193 34.7893 14.8043C35.3738 14.9894 35.9582 15.2361 36.6042 15.5137C37.1272 15.7296 37.4963 16.0072 37.7116 16.3156C37.9269 16.624 38.0807 17.1175 38.173 17.7343C38.2653 18.2278 38.3576 18.8447 38.4806 19.5849C38.6037 20.3252 38.7575 21.127 38.942 22.0215C39.0958 22.885 39.2804 23.7795 39.4649 24.7048C39.6495 25.6301 39.834 26.5245 40.0186 27.3572C40.2955 25.2291 40.6954 23.101 41.1876 20.9728Z" fill="white"/>
<path d="M62.0126 24.3039C61.8588 24.4273 61.5819 24.4582 61.1512 24.4273C59.9823 24.2731 59.1518 23.9338 58.5982 23.4095C58.0752 22.8851 57.7368 22.2066 57.6753 21.3739C57.6445 21.2197 57.6138 21.0346 57.6138 20.8804C57.6138 20.7262 57.6138 20.5412 57.6138 20.3561C57.6138 20.1711 57.6138 19.986 57.583 19.8318C57.5522 19.6775 57.5522 19.4925 57.5215 19.3382C57.4599 19.0298 57.3984 18.7523 57.3369 18.5364C57.2754 18.3205 57.1523 18.1971 56.9985 18.1354C56.6602 18.0429 56.2603 18.1663 55.8297 18.5364C55.3683 18.9065 54.9069 19.4308 54.4455 20.1402C53.984 20.8496 53.5226 21.6514 53.0612 22.5767C52.5998 23.502 52.2307 24.4582 51.9231 25.4451C51.6462 26.247 51.4309 27.0489 51.3079 27.9125C51.1848 28.7452 51.1233 29.5163 51.1848 30.2257C51.2156 30.9351 51.3386 31.552 51.5232 32.0454C51.7077 32.5389 51.9846 32.8781 52.3537 32.9707C52.6613 33.0632 52.9689 33.0323 53.2765 32.909C53.5841 32.7548 53.9225 32.508 54.2301 32.1996C54.5377 31.8604 54.8453 31.4594 55.1529 30.9968C55.4605 30.5341 55.7374 30.0098 55.9835 29.4546C54.9991 29.5163 54.2301 29.3312 53.6764 28.9303C53.1535 28.5294 52.7228 27.8508 52.3845 26.9256C52.3229 26.7097 52.3229 26.5246 52.3845 26.4013C52.446 26.2778 52.5998 26.1853 52.7843 26.0928C52.9689 26.0311 53.1842 25.9694 53.4611 25.9077C53.7379 25.8769 54.0148 25.8152 54.3532 25.7844C54.9684 25.661 55.6143 25.5376 56.2603 25.476C56.937 25.4142 57.4907 25.3218 57.9829 25.2292C58.5366 25.1367 58.998 25.1367 59.3364 25.2292C59.6747 25.3218 60.0131 25.5376 60.2899 25.8769C60.4745 26.0928 60.6898 26.3087 60.8436 26.5555C61.0282 26.8021 61.182 27.018 61.3358 27.2031C61.6127 27.5732 61.7665 27.9125 61.7665 28.2209C61.7665 28.5294 61.705 28.8995 61.5512 29.3312C60.9359 30.8117 60.2284 32.0763 59.4287 33.094C58.6289 34.1118 57.7676 34.8829 56.8447 35.4381C56.2603 35.7774 55.6143 35.9933 54.9684 36.0858C54.2917 36.1783 53.6149 36.2091 52.8766 36.0858C51.6155 35.9316 50.3542 35.5614 49.1546 35.0371C48.7239 34.7903 48.2933 34.4819 47.8934 34.1118C47.4935 33.7109 47.1552 33.2791 46.9398 32.8165C46.5091 32.0763 46.2015 31.1818 46.0477 30.1948C45.8939 29.177 45.8324 28.1284 45.9247 26.9872C46.017 25.8461 46.2015 24.7049 46.5091 23.5329C46.8168 22.3608 47.2475 21.2197 47.8011 20.1093C48.3241 18.999 48.97 17.9812 49.7082 16.9943C50.4465 16.0381 51.2771 15.2054 52.1999 14.5268C52.5075 14.2801 52.8151 14.1259 53.1535 13.9717C53.4918 13.8483 53.861 13.7558 54.1994 13.6941C54.5685 13.6324 54.9069 13.6324 55.2452 13.6324C55.5836 13.6324 55.9219 13.6632 56.1988 13.6941C56.6294 13.7558 57.0601 13.8175 57.5215 13.9409C57.9829 14.0642 58.4136 14.1875 58.8135 14.3418C59.2441 14.496 59.644 14.6811 60.0131 14.8969C60.3822 15.1128 60.7206 15.3288 61.0282 15.5755C61.5819 16.0381 61.9818 16.5007 62.2279 17.0559C62.474 17.5802 62.6278 18.1971 62.6893 18.8448C62.7201 19.184 62.7201 19.585 62.6893 20.0168C62.6893 20.4486 62.6586 20.8804 62.6278 21.3122C62.597 21.744 62.5355 22.145 62.474 22.5459C62.4125 22.9468 62.351 23.2861 62.2894 23.5329C62.2894 23.9646 62.1664 24.2114 62.0126 24.3039Z" fill="white"/>
<path d="M121.996 35.1295C120.889 35.3454 119.843 35.5305 118.858 35.7464C118.489 35.8389 118.182 35.9006 117.935 35.9314C117.69 35.9623 117.474 35.9314 117.29 35.9006C117.105 35.8697 116.951 35.8081 116.828 35.7464C116.705 35.6847 116.582 35.5922 116.459 35.5305C116.182 35.3454 115.936 35.1603 115.69 34.9753C115.444 34.7902 115.167 34.5435 114.767 34.2351C114.491 33.9884 114.275 33.7416 114.121 33.4641C113.968 33.1864 113.936 32.8163 113.999 32.4154C114.06 31.7677 114.121 30.9967 114.244 30.1022C114.367 29.2078 114.491 28.2516 114.675 27.2339C114.829 26.2161 115.014 25.1366 115.229 24.0262C115.413 22.9159 115.629 21.8364 115.874 20.7261C116.121 19.6158 116.336 18.5671 116.582 17.5493C116.828 16.5315 117.044 15.6062 117.29 14.7735C117.443 14.28 117.659 14.0024 117.935 13.9099C118.182 13.8174 118.582 13.8482 119.105 14.0024C119.628 14.1258 120.181 14.3109 120.766 14.5575C121.35 14.8043 121.873 15.0819 122.335 15.3595C122.765 15.6679 123.042 15.9455 123.134 16.1922C123.227 16.439 123.227 16.7474 123.072 17.1792C122.735 18.1662 122.396 19.2765 122.057 20.4793C121.719 21.6822 121.381 22.9159 121.042 24.1496C120.704 25.4141 120.366 26.6787 120.088 27.9124C119.781 29.1769 119.504 30.3798 119.228 31.521C119.996 31.3976 120.704 31.2742 121.35 31.2125C122.027 31.1509 122.735 31.0891 123.503 31.0275C123.965 30.9967 124.334 31.0275 124.549 31.12C124.796 31.2125 125.011 31.4284 125.195 31.7369C125.38 32.0453 125.564 32.3537 125.687 32.6313C125.811 32.9397 125.903 33.2481 125.964 33.5257C126.087 33.865 126.118 34.1117 126.056 34.2351C125.995 34.3585 125.718 34.451 125.195 34.5435C124.18 34.7286 123.103 34.9137 121.996 35.1295Z" fill="white"/>
<path d="M142.237 17.5185C142.513 18.1045 142.728 18.7522 142.883 19.4616C143.067 20.6645 143.098 21.9907 143.005 23.4094C142.913 24.8282 142.667 26.2469 142.268 27.6348C141.867 29.0228 141.345 30.349 140.667 31.6136C139.991 32.8473 139.161 33.9268 138.207 34.7903C137.53 35.3147 136.853 35.6539 136.115 35.839C135.377 36.024 134.547 36.0549 133.593 35.9623C132.977 35.9007 132.331 35.7773 131.655 35.6539C130.978 35.4997 130.393 35.3147 129.84 35.0063C129.378 34.7595 128.948 34.4819 128.517 34.1118C128.087 33.7417 127.748 33.3407 127.502 32.8781C127.102 32.107 126.794 31.2434 126.61 30.2873C126.426 29.3312 126.333 28.3134 126.333 27.2647C126.364 26.2161 126.487 25.1058 126.702 24.0263C126.949 22.916 127.286 21.8365 127.717 20.7879C128.179 19.7392 128.702 18.7522 129.378 17.827C130.025 16.9017 130.793 16.0381 131.655 15.2979C132.239 14.8352 132.916 14.4959 133.716 14.2801C134.515 14.0333 135.285 14.0025 136.022 14.0951C136.976 14.2493 137.868 14.4652 138.73 14.8044C139.591 15.1128 140.299 15.5138 140.852 15.9455C141.467 16.3774 141.929 16.9326 142.237 17.5185ZM135.685 18.8139C135.254 19.2149 134.823 19.7701 134.392 20.4795C133.961 21.1888 133.562 21.9598 133.193 22.7926C132.823 23.6562 132.516 24.4581 132.301 25.26C132.055 26.031 131.901 26.8638 131.808 27.6966C131.716 28.5293 131.686 29.3004 131.716 30.0406C131.747 30.75 131.87 31.3668 132.055 31.8911C132.239 32.4154 132.547 32.7239 132.916 32.8473C133.254 32.9706 133.624 32.8781 134.024 32.6313C134.392 32.3538 134.792 31.9528 135.162 31.3977C135.53 30.8425 135.9 30.164 136.238 29.3621C136.576 28.5601 136.884 27.6966 137.13 26.7404C137.345 25.9694 137.53 25.1058 137.653 24.1497C137.776 23.2244 137.838 22.3299 137.838 21.5281C137.838 20.6953 137.746 19.9859 137.591 19.4C137.438 18.8139 137.192 18.4747 136.853 18.3513C136.515 18.2587 136.115 18.3821 135.685 18.8139Z" fill="white"/>
<path d="M143.528 30.3181C143.867 30.2563 144.205 30.2563 144.544 30.2563C144.882 30.2872 145.22 30.3489 145.497 30.4414C145.805 30.534 146.082 30.6573 146.328 30.8424C147.712 31.6751 148.943 32.2303 149.958 32.477C151.004 32.7237 151.742 32.6621 152.203 32.292C152.387 32.1686 152.418 32.0144 152.326 31.8293C152.203 31.6443 152.019 31.3975 151.711 31.1816C151.403 30.9349 151.034 30.6882 150.573 30.3798C150.111 30.1021 149.65 29.7937 149.127 29.4853C148.635 29.1769 148.112 28.8376 147.62 28.5292C147.127 28.1899 146.666 27.8507 146.235 27.5114C145.774 27.1413 145.374 26.7403 145.036 26.2777C144.666 25.815 144.39 25.3216 144.205 24.7972C144.021 24.2729 143.898 23.6869 143.898 23.0701C143.867 22.4532 143.99 21.8055 144.205 21.1579C144.359 20.6027 144.605 19.9858 144.974 19.3381C145.344 18.6905 145.743 18.0736 146.235 17.4567C146.727 16.8399 147.25 16.2847 147.835 15.7295C148.42 15.2052 149.004 14.7426 149.588 14.3725C149.803 14.2183 150.081 14.0641 150.388 13.9407C150.696 13.7865 151.065 13.694 151.434 13.6323C151.834 13.5705 152.234 13.5398 152.695 13.5705C153.157 13.6014 153.618 13.694 154.11 13.8173C154.848 14.0949 155.587 14.4034 156.356 14.7735C157.094 15.1436 157.709 15.5753 158.232 16.0688C158.57 16.3773 158.817 16.6857 159.001 16.9632C159.186 17.2717 159.309 17.5801 159.37 17.8577C159.432 18.1661 159.493 18.4437 159.493 18.7212C159.493 18.9989 159.493 19.2456 159.493 19.4923C159.432 19.9549 159.37 20.4176 159.248 20.9728C159.124 21.4971 159.001 22.0523 158.847 22.5766C158.694 23.1009 158.54 23.6253 158.355 24.1187C158.171 24.6122 157.986 25.044 157.802 25.4141C157.617 25.7534 157.432 25.9385 157.217 26.0309C157.001 26.1235 156.694 26.0926 156.325 25.9385C154.08 25.1365 153.034 24.057 153.188 22.6691C153.218 22.3916 153.249 22.0523 153.341 21.6822C153.433 21.3121 153.526 20.9419 153.618 20.5718C153.71 20.2017 153.803 19.8316 153.864 19.4923C153.925 19.1531 153.956 18.8755 153.925 18.6596C153.895 18.4437 153.833 18.3204 153.68 18.2895C153.557 18.2586 153.31 18.3512 153.003 18.567C152.726 18.7212 152.449 18.9372 152.111 19.2456C151.772 19.5541 151.465 19.8933 151.157 20.2634C150.849 20.6335 150.573 21.0653 150.326 21.4971C150.081 21.9597 149.927 22.3916 149.834 22.8542C149.742 23.3168 149.773 23.7486 149.865 24.1804C149.958 24.6122 150.204 24.9823 150.573 25.3216C151.065 25.7842 151.588 26.1851 152.172 26.5861C152.757 26.9871 153.341 27.3572 153.925 27.7581C154.51 28.1282 155.064 28.4983 155.587 28.8684C156.11 29.2386 156.54 29.6087 156.879 30.0097C157.217 30.4106 157.432 30.8115 157.524 31.2434C157.617 31.6751 157.524 32.1069 157.279 32.6004C157.125 32.9396 156.879 33.3098 156.571 33.7107C156.264 34.1117 155.864 34.4818 155.371 34.8211C154.879 35.1604 154.264 35.4379 153.557 35.6847C152.849 35.9314 151.988 36.0548 151.004 36.0548C149.681 36.0856 148.389 35.8389 147.127 35.3454C145.867 34.8519 144.574 33.9575 143.221 32.7237C142.513 32.1069 142.144 31.6443 142.113 31.3667C142.113 31.0583 142.268 30.8115 142.575 30.6265C142.883 30.4723 143.19 30.3798 143.528 30.3181Z" fill="white"/>
<path d="M173.858 18.2896C173.09 18.3513 172.32 18.4438 171.49 18.5364C171.152 19.9243 170.782 21.3739 170.413 22.8543C170.044 24.3347 169.675 25.8152 169.336 27.2956C168.999 28.776 168.66 30.1948 168.352 31.5827C168.045 32.9707 167.768 34.266 167.553 35.4997C167.522 35.7465 167.43 35.9007 167.306 35.9624C167.183 36.024 166.999 36.0549 166.783 36.0549C166.568 36.0549 166.322 35.9932 166.045 35.9315C165.768 35.839 165.461 35.7465 165.092 35.6539C164.753 35.5614 164.415 35.4381 164.138 35.3455C163.862 35.2222 163.615 35.0988 163.431 34.9138C163.246 34.7595 163.092 34.5436 163.031 34.3277C162.939 34.1118 162.939 33.8343 163 33.5258C163.061 32.7239 163.154 31.737 163.308 30.5958C163.462 29.4238 163.646 28.1901 163.831 26.9256C164.046 25.6301 164.261 24.3347 164.507 23.0086C164.753 21.6823 165 20.4794 165.245 19.3382C164.753 19.4308 164.292 19.4925 163.862 19.5541C163.4 19.6159 163.031 19.6775 162.754 19.7701C162.354 19.8626 162.016 19.8934 161.739 19.8009C161.462 19.7392 161.185 19.5233 160.847 19.1532C160.508 18.8139 160.17 18.3513 159.893 17.827C159.616 17.3027 159.37 16.84 159.186 16.4699C159.001 16.0998 158.94 15.8222 159.032 15.6989C159.124 15.5755 159.34 15.4829 159.647 15.3905C160.631 15.2054 161.739 15.0203 162.969 14.8353C164.199 14.6811 165.461 14.5268 166.753 14.3726C168.045 14.2492 169.306 14.1259 170.537 14.0333C171.767 13.9408 172.874 13.8791 173.858 13.8483C174.381 13.8483 174.751 13.8791 174.966 13.9717C175.182 14.0642 175.396 14.2184 175.55 14.4343C175.889 14.8044 176.166 15.2362 176.381 15.668C176.596 16.1306 176.75 16.5624 176.873 16.9943C176.965 17.3644 176.965 17.6419 176.873 17.7653C176.781 17.9195 176.473 17.9812 175.981 18.0121C175.335 18.1354 174.628 18.1971 173.858 18.2896Z" fill="white"/>
</g>
<defs>
<clipPath id="clip0_298_219">
<rect width="177" height="49.4324" fill="white"/>
</clipPath>
</defs>
</svg>
