<svg width="390" height="214" viewBox="0 0 390 214" fill="none" xmlns="http://www.w3.org/2000/svg">
<mask id="mask0_667_8438" style="mask-type:alpha" maskUnits="userSpaceOnUse" x="0" y="0" width="390" height="214">
<rect width="390" height="214" fill="#D9D9D9"/>
</mask>
<g mask="url(#mask0_667_8438)">
<path d="M47.6055 -46.8794C30.3117 -38.8156 -31.5442 -10.1692 -41.5529 57.2038C-41.5529 57.2038 -50.5714 119.131 -10.6074 111.385C-10.6074 111.385 -9.75851 117.362 -13.578 125.107C-16.9732 131.969 -18.9891 139.396 -19.2014 147.034C-19.2014 147.424 -19.2367 147.813 -19.2367 148.237C-19.3074 153.966 -18.3879 159.661 -16.6196 165.107C-14.7098 171.084 -11.8805 182.472 -11.8805 197.821C-11.8805 197.821 -14.25 285.6 43.5742 296.21C53.7244 298.085 63.6626 291.471 65.5721 281.321C65.6075 281.038 65.6781 280.791 65.7134 280.507C66.4205 275.698 72.2561 273.753 75.6868 277.183C81.4518 282.984 88.3839 291.33 93.8654 302.328C93.8654 302.328 128.701 346.184 180.301 339.747C180.301 339.747 202.228 330.728 216.41 337.164C216.41 337.164 269.283 353.929 268.01 321.674C268.01 321.674 356.991 319.093 363.463 282.984C363.463 282.984 365.797 273.647 360.281 267.917C356.249 263.744 357.026 256.989 361.908 253.876C384.047 239.73 421.287 212.003 426.698 182.366C426.698 182.366 435.717 151.42 415.099 163.021C415.099 163.021 439.607 40.4757 407.354 -20.1427C407.354 -20.1427 364.773 -88.5056 355.753 -58.8332C355.753 -58.8332 235.791 -196.833 181.609 -125.888C181.609 -125.888 150.487 -126.914 128.241 -128.081C118.834 -128.576 109.426 -127.303 100.549 -124.12C90.4346 -120.512 79.4353 -113.934 75.1209 -102.122C72.7161 -95.5082 67.6936 -90.1679 61.3283 -87.1617C42.1595 -78.0725 10.1882 -59.3991 47.3936 -49.4608C48.6313 -49.1784 48.8079 -47.4453 47.6055 -46.8794Z" fill="#B76EF1"/>
<path d="M45.8021 -49.9207C34.8385 -44.8276 24.1933 -39.1695 14.2199 -32.308C-1.16445 -21.7687 -14.922 -8.89604 -25.4612 6.52455C-35.9651 21.8736 -43.0737 39.91 -45.2664 58.4416C-46.5042 68.9104 -46.3982 79.8743 -44.0994 90.2009C-42.6493 96.673 -40.0676 103.145 -35.5053 108.061C-30.554 113.366 -23.5161 115.842 -16.3367 115.629C-14.1086 115.559 -11.8805 115.241 -9.68782 114.852C-11.1732 113.72 -12.6586 112.588 -14.1794 111.456C-13.6135 115.665 -15.0989 120.051 -16.8672 123.799C-20.121 130.625 -22.2075 137.875 -22.7026 145.444C-23.1624 152.658 -22.0307 159.802 -19.9087 166.699C-18.4587 171.367 -17.3977 176.177 -16.6903 181.022C-15.1342 191.243 -15.8062 201.605 -14.9574 211.861C-13.8256 225.69 -11.35 239.553 -6.57555 252.568C-0.987617 267.811 7.81861 282.276 21.6115 291.366C28.7909 296.105 38.3044 300.172 47.0395 300.137C52.8398 300.101 58.5694 297.767 62.7073 293.735C64.8297 291.683 66.4911 289.173 67.6229 286.485C68.1535 285.247 68.5782 284.009 68.8253 282.665C69.0381 281.604 69.0381 280.366 69.9572 279.624C71.4783 278.386 72.822 279.483 73.9538 280.614C75.934 282.63 77.8445 284.752 79.6481 286.944C81.6989 289.421 83.5732 292.037 85.3415 294.726C87.3932 297.873 88.9135 301.48 91.0358 304.522C92.7689 306.962 95.0678 309.155 97.1892 311.242C109.32 323.301 123.998 333.097 140.16 338.792C150.946 342.612 162.476 344.415 173.899 343.849C177.506 343.672 180.619 343.284 183.978 342.152C188.081 340.772 192.29 339.676 196.57 339.004C201.803 338.155 207.427 337.979 212.52 339.534C214.075 339.994 215.561 340.666 217.117 341.126C221.998 342.505 226.984 343.531 232.007 344.203C244.385 345.9 262.775 346.466 269.283 333.134C271.016 329.561 271.617 325.636 271.475 321.71C270.309 322.877 269.105 324.079 267.938 325.246C279.468 324.893 291.069 323.513 302.456 321.604C312.076 319.977 321.625 317.855 330.856 314.707C339.697 311.666 348.433 307.74 355.647 301.727C361.483 296.882 365.797 290.375 367 282.806C367.46 280.048 367.495 277.29 367.071 274.531C366.469 270.817 364.772 268.129 362.474 265.23C360.776 263.108 360.67 260.137 362.402 258.014C364.1 255.928 367.319 254.549 369.511 253.064C381.252 245.177 392.57 236.547 402.72 226.715C412.941 216.813 422.384 205.425 427.512 191.986C430.907 183.144 438.44 154.037 420.439 157.15C417.857 157.609 415.452 158.741 413.153 160.014C414.886 161.359 416.619 162.667 418.352 164.011C420.545 153.118 422.03 142.048 423.41 130.978C426.345 107.106 427.936 82.9863 427.264 58.9369C426.522 33.6497 423.586 7.44356 413.188 -15.8625C411.067 -20.6369 408.449 -24.7747 405.55 -29.0901C400.775 -36.1281 395.718 -43.0239 390.307 -49.5666C383.799 -57.4184 364.666 -80.0175 354.48 -64.7746C353.454 -63.2538 352.783 -61.4501 352.217 -59.7172C354.198 -60.2477 356.143 -60.7428 358.123 -61.2733C354.056 -65.9417 349.777 -70.3979 345.462 -74.8187C335.277 -85.2164 324.595 -95.1898 313.42 -104.526C299.91 -115.773 285.657 -126.348 270.202 -134.765C255.949 -142.545 240.14 -148.982 223.731 -149.619C208.169 -150.22 193.492 -144.349 182.847 -132.926C181.291 -131.228 179.841 -129.46 178.462 -127.621C179.488 -128.222 180.513 -128.788 181.503 -129.389C170.822 -129.743 160.142 -130.167 149.461 -130.592C140.902 -130.945 132.273 -131.723 123.714 -131.653C113.883 -131.582 104.157 -129.601 95.1031 -125.746C87.8179 -122.634 81.133 -118.143 76.3233 -111.777C73.7772 -108.417 72.5748 -104.668 70.7005 -100.99C68.9322 -97.5239 66.3146 -94.447 63.0613 -92.2543C60.3024 -90.4153 57.1904 -89.142 54.255 -87.6214C51.4608 -86.2067 48.7019 -84.6859 46.0143 -83.0944C40.9216 -80.0883 35.7581 -76.693 31.6909 -72.343C28.1543 -68.5234 25.1835 -63.2892 27.2701 -58.0196C28.4725 -54.9785 30.8775 -52.7502 33.6007 -51.0525C35.3336 -49.956 37.2081 -49.1429 39.1179 -48.3642C40.1081 -47.9758 41.0984 -47.6218 42.0887 -47.2686C42.6899 -47.0559 43.3265 -46.8793 43.9278 -46.6674C44.529 -46.49 45.6253 -45.6769 45.2009 -46.5959C45.024 -47.1971 44.8826 -47.7983 44.7058 -48.3642C45.1655 -49.0007 45.4838 -49.4607 45.8021 -49.9207C42.124 -47.304 45.6606 -41.185 49.3737 -43.8026C51.602 -45.3935 52.7692 -48.1523 51.2136 -50.6984C49.5865 -53.3161 45.696 -53.5633 43.0082 -54.5185C40.9923 -55.2257 39.0471 -56.1094 37.2435 -57.2415C35.9702 -58.055 34.9093 -59.0806 34.2727 -59.9294C33.7422 -60.6721 33.6361 -61.2026 33.7068 -62.0514C33.7775 -63.0416 33.4947 -61.3441 33.7422 -62.3343C33.8129 -62.5819 33.8837 -62.8648 33.9544 -63.1124C33.9897 -63.2538 34.2373 -63.9258 34.0252 -63.36C34.202 -63.7843 34.4495 -64.2087 34.6971 -64.6331C36.2179 -67.2149 38.7288 -69.443 41.2753 -71.4235C47.3936 -76.1979 54.3962 -79.876 61.3636 -83.2712C66.0321 -85.5347 70.2406 -88.2579 73.5644 -92.3604C77.0658 -96.7105 78.3035 -102.015 81.3458 -106.578C87.1098 -115.242 97.6139 -119.982 107.375 -122.493C119.153 -125.534 131.071 -124.332 143.06 -123.837C152.998 -123.412 162.936 -123.023 172.874 -122.669C175.491 -122.563 178.108 -122.422 180.725 -122.386C181.362 -122.386 181.928 -122.316 182.564 -122.493C184.368 -122.988 185.747 -125.499 186.949 -126.843C190.981 -131.405 195.225 -134.942 200.565 -137.771C204.951 -140.07 210.963 -141.838 215.632 -142.333C227.585 -143.606 238.903 -140.883 250.149 -136.533C274.941 -126.913 297.257 -109.725 317.134 -92.1482C329.688 -81.0431 341.254 -69.0893 352.712 -56.8879C352.889 -56.7115 353.031 -56.4987 353.207 -56.3222C355.046 -54.2351 358.371 -55.5081 359.114 -57.8782C359.609 -59.4342 359.75 -60.1063 360.952 -61.6623C360.281 -60.7782 362.014 -62.5465 361.518 -62.1928C361.058 -61.8392 361.872 -62.4051 361.978 -62.4404C362.756 -62.9356 361.872 -62.4758 362.19 -62.5465C362.474 -62.6172 362.721 -62.6879 363.003 -62.7587C363.534 -62.9002 362.19 -62.7941 363.003 -62.7234C363.287 -62.6879 363.605 -62.7234 363.888 -62.7234C364.666 -62.7234 363.251 -62.9356 364.17 -62.6879C364.773 -62.5111 365.337 -62.3697 365.939 -62.1928C366.788 -61.9099 365.586 -62.3697 366.187 -62.0867C366.611 -61.8746 367.035 -61.6978 367.425 -61.4501C370.749 -59.6819 372.624 -57.9843 375.382 -55.4375C378.53 -52.5021 381.43 -49.3195 384.188 -46.0653C389.422 -39.9119 394.055 -33.5811 398.689 -26.8265C401.129 -23.2545 403.639 -19.7179 405.55 -15.8625C416.124 5.56931 419.094 30.5024 420.12 54.0919C421.146 77.752 419.803 101.483 417.15 125.002C415.771 137.239 413.967 149.192 411.774 161.5C411.739 161.676 411.703 161.889 411.668 162.066C411.067 165.072 414.038 167.618 416.867 166.062C417.857 165.497 418.883 164.966 419.979 164.577C420.439 164.4 420.899 164.259 421.358 164.152C421.606 164.081 421.853 164.046 422.101 163.975C422.773 163.869 421.995 163.975 422.349 163.94C422.703 163.94 423.056 163.905 423.41 163.94C422.525 163.869 423.586 163.975 423.798 164.081C423.126 163.728 423.728 164.011 423.94 164.223C423.622 163.869 423.94 164.081 424.223 164.541C423.586 163.445 424.859 166.062 424.435 164.931C424.718 165.638 424.859 166.38 425.001 167.087C425.143 167.76 425.001 167.159 425.001 167.052C425.037 167.265 425.037 167.477 425.072 167.653C425.108 168.007 425.108 168.397 425.143 168.75C425.178 169.599 425.143 170.483 425.108 171.332C424.965 174.125 424.612 176.142 423.834 179.324C423.126 182.33 422.49 185.372 421.465 188.307C417.15 200.828 408.131 211.473 398.865 220.632C389.21 230.146 378.494 238.457 367.319 246.061C362.367 249.421 355.93 252.215 354.551 258.651C353.844 261.976 354.41 265.583 356.319 268.448C357.239 269.792 358.442 270.853 359.219 272.303C359.856 273.506 360.21 274.885 360.387 276.193C361.235 282.877 358.264 289.314 353.597 294.053C348.079 299.641 340.44 303.531 332.978 306.361C324.172 309.721 315.011 312.02 305.781 313.753C293.474 316.087 281.413 317.254 268.717 318.032C268.504 318.032 268.292 318.032 268.116 318.067C266.241 318.138 264.508 319.659 264.579 321.604C264.685 325.034 264.26 328.111 262.705 330.692C261.997 331.895 261.502 332.425 260.228 333.593C259.663 334.088 258.354 334.902 257.116 335.538C255.242 336.457 251.246 337.413 249.053 337.66C245.693 338.014 242.263 338.014 238.903 337.766C233.35 337.377 228.045 336.457 222.28 335.008C220.831 334.654 219.38 334.264 217.966 333.841C217.86 333.805 217.718 333.77 217.612 333.735C217.577 333.735 217.541 333.735 217.541 333.699C218.213 333.911 216.658 333.31 216.374 333.204C213.722 332.178 210.928 331.683 208.134 331.401C199.045 330.516 189.461 332.603 180.937 335.715C177.754 336.882 173.617 336.776 169.691 336.776C164.244 336.741 158.798 336.175 153.493 335.043C135.986 331.294 119.93 322.099 106.704 310.181C103.379 307.175 100.195 304.026 97.2961 300.632C95.6337 298.686 94.8912 296.175 93.4407 293.806C90.0806 288.254 86.1555 283.054 81.8049 278.245C78.1976 274.248 74.0597 270.287 68.2948 272.586C65.7487 273.612 63.7685 275.627 62.8838 278.209C61.9648 280.791 61.8236 283.337 60.3377 285.742C57.721 289.986 52.9457 292.78 47.9595 292.957C43.6094 293.134 39.0825 291.648 35.0508 290.128C20.5152 284.645 10.3296 272.268 3.85758 258.58C0.709995 251.932 -1.62423 244.788 -3.42796 237.573C-4.27673 234.213 -4.98405 230.818 -5.58527 227.387C-5.86822 225.761 -6.15117 224.098 -6.39872 222.471C-6.64626 220.774 -6.71698 220.243 -6.92921 218.404C-7.74266 211.579 -8.16705 204.717 -8.13173 197.821C-8.09633 186.646 -9.5463 175.222 -12.8708 164.541C-14.9928 157.716 -15.9123 150.819 -15.2404 143.675C-14.8867 140.068 -14.0378 136.531 -12.8708 133.101C-11.739 129.705 -10.0061 126.593 -8.73294 123.233C-7.389 119.661 -6.328 115.241 -6.8585 111.386C-7.17676 108.981 -8.83897 107.496 -11.35 107.99C-14.7806 108.627 -18.4587 108.769 -21.5002 108.061C-24.1173 107.46 -26.7344 106.222 -28.432 104.772C-32.8528 100.987 -35.0809 96.0011 -36.5663 90.2715C-39.1127 80.5815 -39.1834 69.8303 -38.0871 59.4322C-38.0163 58.9016 -37.981 58.4063 -37.9102 57.8767C-37.8041 56.8861 -38.0517 58.6191 -37.9456 58.1591C-36.8492 52.7482 -35.9651 47.4079 -34.4089 42.103C-31.4736 32.1648 -27.1589 22.722 -21.6416 13.951C-12.1988 -1.04404 0.639191 -13.8117 14.998 -24.1029C25.0774 -31.3184 35.9349 -37.4011 47.1464 -42.6708C47.9595 -43.0592 48.7725 -43.4486 49.5865 -43.8026C53.5116 -45.7475 49.9043 -51.8656 45.8021 -49.9207Z" fill="#DBADFF"/>
<path d="M256.928 -0.892513C258.681 -0.124221 272.969 6.73395 282.373 14.0848C282.373 14.0848 293.766 24.7334 289.56 15.0401C285.354 5.34791 281.148 -4.34431 290.158 -3.14662C299.133 -1.95347 320.771 24.7555 324.487 55.0403C328.569 88.4774 311.067 178.806 215.611 167.936C215.611 167.936 186.268 164.035 169.124 132.5C169.124 132.5 164.919 122.808 174.92 130.238C184.886 137.664 189.372 140.686 194.095 141.921C194.095 141.921 173.454 127.581 180.957 126.153C180.957 126.153 196.322 134.296 204.78 134.814C213.238 135.332 232.458 132.999 232.458 132.999C232.458 132.999 250.17 128.04 237.977 137.372L246.673 136.102C246.673 136.102 252.906 135.111 254.535 136.54C256.165 137.97 240.951 146.937 233.368 148.961C233.368 148.961 287.412 145.798 299.188 80.2906C299.188 80.2906 307.324 45.1236 267.006 11.8639C262.503 8.16149 257.512 5.17889 252.241 2.69434C246.227 -0.102834 244.914 -6.05741 256.928 -0.892513Z" fill="#A031F7"/>
<path d="M161.092 47.3741C161.092 47.3741 136.016 63.8959 147.133 94.1026C147.133 94.1026 149.833 103.85 153.764 111.422C153.764 111.422 158.723 126.012 149.035 114.089C139.348 102.166 119.367 66.1953 157.626 44.6641C157.635 44.6982 174.225 38.7463 161.092 47.3741Z" fill="#A031F7"/>
<path d="M27.9767 181.559C32.8896 180.437 35.2819 172.565 33.3202 163.977C31.3584 155.389 25.7853 149.337 20.8725 150.46C15.9597 151.582 13.5674 159.454 15.5291 168.042C17.4909 176.63 23.0639 182.682 27.9767 181.559Z" fill="#A031F7"/>
<path d="M26.7397 184.382C23.9811 184.382 21.1518 182.967 18.6761 180.28C16.0237 177.38 13.9724 173.277 12.9114 168.679C10.5772 158.494 13.7956 149.369 20.2323 147.919C23.5922 147.141 27.0934 148.556 30.0996 151.845C32.752 154.744 34.8033 158.847 35.8643 163.445C36.9253 168.043 36.8545 172.64 35.7228 176.389C34.4142 180.668 31.8679 183.427 28.5435 184.205C27.9423 184.312 27.3409 184.382 26.7397 184.382ZM22.036 152.977C21.8237 152.977 21.647 153.012 21.4348 153.048C17.8274 153.861 16.6957 161.323 18.0749 167.477C18.9238 171.119 20.5506 174.479 22.5665 176.672C24.2287 178.476 25.9616 179.324 27.3409 179.007C28.7202 178.688 29.9227 177.167 30.6301 174.833C31.4788 172.004 31.5142 168.255 30.6655 164.612C29.8166 160.969 28.1897 157.609 26.1738 155.417C24.7946 153.825 23.3092 152.977 22.036 152.977Z" fill="#A031F7"/>
<path d="M3.04387 145.09C5.30961 145.09 7.14642 140.863 7.14642 135.647C7.14642 130.432 5.30961 126.204 3.04387 126.204C0.778123 126.204 -1.05859 130.432 -1.05859 135.647C-1.05859 140.863 0.778123 145.09 3.04387 145.09Z" fill="#A031F7"/>
<path d="M3.04374 147.742C-0.952698 147.742 -3.7113 142.755 -3.7113 135.647C-3.7113 128.538 -0.917294 123.552 3.04374 123.552C7.00477 123.552 9.79879 128.538 9.79879 135.647C9.79879 142.755 7.00477 147.742 3.04374 147.742ZM3.04374 129.139C2.44253 129.989 1.59368 132.251 1.59368 135.647C1.59368 139.042 2.44253 141.27 3.04374 142.154C3.64495 141.306 4.49381 139.042 4.49381 135.647C4.49381 132.251 3.60964 130.024 3.04374 129.139Z" fill="#A031F7"/>
<path d="M48.6667 181.835C48.5961 180.597 50.2938 180.174 50.8244 181.305C59.206 198.776 95.421 259.288 202.582 279.093C202.582 279.093 247.072 289.738 202.582 299.393C202.582 299.393 191.618 302.824 171.388 296.387C168.842 295.574 166.826 298.615 168.559 300.632C173.581 306.431 176.587 312.903 164.846 312.903C145.04 312.903 86.6156 279.341 74.7669 252.852C73.5292 250.057 75.4397 246.91 78.4458 246.662L80.3906 246.485C82.0884 246.344 82.8661 244.328 81.7696 243.09C73.5645 233.86 50.0466 205.283 48.6667 181.835Z" fill="#A031F7"/>
<path d="M17.474 235.026C19.7728 242.63 22.1069 250.411 26.9875 256.671C31.8681 262.931 39.3304 267.6 47.2879 267.493C48.8091 267.457 50.3646 267.281 51.7083 266.574C55.493 264.629 56.3767 259.324 54.8212 255.363C53.3 251.401 50.0115 248.395 47.0045 245.389C34.6621 233.046 25.1484 218.228 16.0239 203.303C15.0336 201.676 12.558 202.383 12.558 204.293C12.5934 210.694 13.4068 221.588 17.474 235.026Z" fill="#A031F7"/>
<path d="M364.559 56.1434C364.524 55.7188 364.524 55.2941 364.524 54.8694C364.559 51.9702 359.856 40.2991 369.617 37.8589C369.617 37.8589 379.307 34.6401 378.635 52.6774C377.999 70.7491 374.108 88.7864 370.89 86.204C367.99 83.9061 365.125 60.9178 364.559 56.1434Z" fill="#A031F7"/>
<path d="M371.386 -2.63573C367.92 -8.75379 364.949 -15.1906 362.509 -21.7686C360.634 -26.8264 359.255 -33.0866 362.791 -37.1883C365.196 -39.9825 369.334 -40.8318 372.941 -39.9472C380.263 -38.1082 384.471 -30.6102 387.831 -23.8557C395.328 -8.64786 402.932 6.87774 405.373 23.642C405.55 24.9504 405.691 26.3293 405.09 27.4965C403.817 29.8307 400.103 29.5835 398.229 27.7083C396.354 25.8341 395.788 23.0761 395.223 20.4585C394.657 17.877 393.879 15.0828 391.721 13.4911C387.654 14.5876 390.943 23.3233 386.77 24.0304C384.86 24.3492 383.481 22.3327 382.597 20.635C380.545 16.5324 385.638 26.6481 370.961 -2.42387" fill="#A031F7"/>
<path d="M200.637 -108.523C200.637 -108.523 190.309 -121.432 210.963 -122.705C210.963 -122.705 292.872 -127.232 333.507 -35.633C333.507 -35.633 350.908 10.1669 344.471 20.4581C339.308 23.0396 334.145 1.74901 334.145 1.74901C334.145 1.74901 318.654 -32.4142 314.799 -31.7777C310.944 -31.1411 320.599 -20.1781 315.436 -18.2322C310.272 -16.2874 274.163 -56.9235 274.163 -56.9235C274.163 -56.9235 261.926 -67.2505 280.6 -62.0869C299.309 -56.9235 310.272 -48.5419 293.509 -64.0321C276.744 -79.5226 259.981 -82.741 261.891 -76.269C263.836 -69.8323 259.309 -69.8323 247.709 -76.9055C236.109 -84.0495 200.637 -108.523 200.637 -108.523Z" fill="#A031F7"/>
<path d="M405.868 58.3357C404.029 56.0014 400.245 57.2392 400.067 60.2099C398.936 78.8484 391.261 158.918 340.263 215.823C340.263 215.823 316.072 248.077 342.208 240.013C361.943 233.931 407.565 207.794 402.685 183.781C402.472 182.826 401.447 182.26 400.563 182.649L392.676 185.867C389.21 187.282 385.956 183.427 387.973 180.244C394.833 169.351 404.807 151.244 408.98 132.641C416.018 101.2 413.082 67.5313 405.868 58.3357Z" fill="#A031F7"/>
<path d="M192.937 70.7296C192.937 70.7296 200.987 63.0568 204.436 72.2541C207.884 81.4506 214.031 90.4632 219.818 84.8598C225.606 79.2565 223.557 57.1912 203.551 54.4428C183.546 51.6946 152.828 70.9534 173.348 103.759C193.85 136.536 264.426 134.146 273.971 81.0704C283.516 27.9951 235.745 -20.7852 173.055 -18.201C110.366 -15.6172 48.1929 13.4704 59.6061 122.308C59.6061 122.308 70.2505 180.832 109.991 203.39C109.991 203.39 154.636 232.904 141.409 213.334C141.409 213.334 198.592 239.323 244.096 221.421C245.925 220.687 247.84 220.233 249.614 219.409C254.527 217.143 258.185 215.471 257.604 213.756C257.604 213.756 257.248 210.5 241.133 212.55C239.702 212.712 238.246 212.559 236.916 211.999C235.355 211.33 234.46 210.259 239.352 209.123C239.352 209.123 277.534 201.469 300.928 185.271C324.322 169.073 317.213 166.881 304.865 175.373C292.518 183.865 233.277 212.131 173.326 189.426C173.326 189.426 145.953 179.27 119.558 145.219C119.558 145.219 113.409 135.588 113.717 141.228C114.025 146.868 111.108 143.135 106.289 134.063C101.501 124.973 101.285 109.361 103.861 105.078C103.861 105.078 104.196 101.116 107.593 107.287C110.989 113.457 113.495 113.637 112.491 104.658C111.488 95.6775 101.716 48.859 148.127 24.2523C148.127 24.2523 216.094 -12.5499 246.049 63.644C246.232 64.1534 245.529 64.4943 245.255 64.0409C242.481 59.3117 238.093 52.4586 234.993 50.1997C230.124 46.6543 222.459 43.0623 230.841 59.1954C239.242 75.3582 225.272 113.381 196.331 96.1149C179.33 85.8919 192.937 70.7296 192.937 70.7296Z" fill="#A031F7"/>
<path d="M31.7146 39.1566C34.7086 40.2951 38.4693 37.7099 40.114 33.3831C41.7593 29.0557 40.6654 24.6252 37.6707 23.4874C34.6768 22.3491 30.916 24.9342 29.2713 29.261C27.6261 33.5884 28.7199 38.0188 31.7146 39.1566Z" fill="#A031F7"/>
</g>
<rect x="390" width="214" height="390" transform="rotate(90 390 0)" fill="url(#paint0_linear_667_8438)"/>
<defs>
<linearGradient id="paint0_linear_667_8438" x1="376.5" y1="141" x2="608.285" y2="136.991" gradientUnits="userSpaceOnUse">
<stop stop-color="#151317"/>
<stop offset="1" stop-color="#361A4C" stop-opacity="0"/>
</linearGradient>
</defs>
</svg>
