<svg width="1153" height="262" viewBox="0 0 1153 262" fill="none" xmlns="http://www.w3.org/2000/svg">
<mask id="mask0_456_391" style="mask-type:alpha" maskUnits="userSpaceOnUse" x="0" y="0" width="1153" height="262">
<rect width="1153" height="262" fill="url(#paint0_linear_456_391)"/>
</mask>
<g mask="url(#mask0_456_391)">
<path d="M205.44 -247.33C160.697 -224.133 0.661802 -141.727 -25.2328 52.0842C-25.2328 52.0842 -48.5657 230.228 54.8302 207.948C54.8302 207.948 57.0263 225.141 47.1444 247.421C38.3602 267.16 33.1447 288.526 32.5956 310.499C32.5956 311.619 32.5042 312.739 32.5042 313.958C32.3213 330.44 34.7002 346.821 39.2752 362.488C44.2162 379.681 51.5363 412.44 51.5363 456.595C51.5363 456.595 45.406 709.11 195.01 739.631C221.271 745.023 246.983 725.998 251.923 696.8C252.015 695.985 252.198 695.274 252.289 694.458C254.118 680.622 269.216 675.027 278.092 684.897C293.008 701.582 310.942 725.592 325.124 757.231C325.124 757.231 415.253 883.388 548.751 864.872C548.751 864.872 605.482 838.926 642.173 857.443C642.173 857.443 778.968 905.668 775.675 812.882C775.675 812.882 1005.89 805.456 1022.63 701.582C1022.63 701.582 1028.67 674.723 1014.4 658.24C1003.97 646.235 1005.98 626.805 1018.61 617.85C1075.89 577.154 1172.24 497.392 1186.24 412.135C1186.24 412.135 1209.57 323.116 1156.23 356.487C1156.23 356.487 1219.64 3.96295 1136.19 -170.417C1136.19 -170.417 1026.02 -367.076 1002.69 -281.718C1002.69 -281.718 692.316 -678.7 552.136 -474.613C552.136 -474.613 471.617 -477.563 414.063 -480.921C389.723 -482.345 365.384 -478.682 342.417 -469.526C316.248 -459.149 287.791 -440.226 276.628 -406.245C270.406 -387.22 257.412 -371.858 240.944 -363.21C191.35 -337.063 108.633 -283.345 204.891 -254.756C208.094 -253.944 208.551 -248.958 205.44 -247.33Z" fill="#B76EF1"/>
<path d="M200.774 -256.079C172.409 -241.428 144.868 -225.152 119.064 -205.413C79.2616 -175.095 43.6677 -138.065 16.4004 -93.7043C-10.7754 -49.5499 -29.167 2.33508 -34.84 55.6448C-38.0425 85.76 -37.7681 117.3 -31.8206 147.006C-28.069 165.624 -21.3894 184.243 -9.58586 198.383C3.2243 213.644 21.4329 220.768 40.0077 220.156C45.7721 219.953 51.5367 219.038 57.2097 217.918C53.3667 214.663 49.5237 211.407 45.5891 208.151C47.0532 220.257 43.21 232.874 38.6352 243.658C30.2169 263.294 24.8184 284.15 23.5375 305.922C22.3479 326.676 25.2759 347.227 30.766 367.067C34.5176 380.497 37.2627 394.333 39.0927 408.27C43.1186 437.672 41.3802 467.482 43.5761 496.985C46.5044 536.766 52.9092 576.647 65.2618 614.086C79.7191 657.936 102.503 699.545 138.188 725.694C156.763 739.327 181.376 751.027 203.976 750.925C218.982 750.823 233.806 744.109 244.512 732.51C250.003 726.608 254.302 719.385 257.23 711.654C258.603 708.091 259.701 704.531 260.341 700.665C260.891 697.613 260.891 694.052 263.269 691.916C267.204 688.356 270.681 691.51 273.609 694.766C278.732 700.564 283.675 706.669 288.342 712.975C293.647 720.099 298.497 727.626 303.072 735.36C308.38 744.413 312.313 754.79 317.804 763.539C322.288 770.559 328.236 776.868 333.724 782.871C365.11 817.563 403.083 845.743 444.898 862.124C472.805 873.113 502.636 878.301 532.19 876.673C541.523 876.163 549.576 875.045 558.267 871.79C568.882 867.82 579.77 864.668 590.843 862.736C604.383 860.292 618.933 859.785 632.11 864.259C636.135 865.583 639.979 867.515 644.003 868.839C656.632 872.805 669.533 875.756 682.527 877.689C714.552 882.573 762.133 884.201 778.969 845.847C783.452 835.569 785.008 824.278 784.64 812.984C781.623 816.341 778.51 819.8 775.49 823.158C805.32 822.142 835.333 818.172 864.796 812.679C889.684 807.999 914.388 801.896 938.271 792.839C961.146 784.09 983.747 772.799 1002.41 755.501C1017.51 741.564 1028.67 722.844 1031.78 701.072C1032.97 693.138 1033.07 685.201 1031.97 677.265C1030.41 666.583 1026.02 658.85 1020.07 650.51C1015.68 644.405 1015.41 635.859 1019.89 629.753C1024.28 623.752 1032.61 619.785 1038.28 615.511C1068.66 592.824 1097.94 567.999 1124.2 539.715C1150.64 511.23 1175.08 478.469 1188.34 439.81C1197.13 414.376 1216.62 330.643 1170.04 339.598C1163.36 340.919 1157.14 344.175 1151.19 347.837C1155.68 351.705 1160.16 355.468 1164.64 359.334C1170.32 328 1174.16 296.155 1177.73 264.31C1185.32 195.638 1189.44 126.252 1187.7 57.0696C1185.78 -15.6737 1178.19 -91.0606 1151.28 -158.105C1145.8 -171.839 1139.02 -183.743 1131.52 -196.156C1119.17 -216.403 1106.08 -236.24 1092.08 -255.061C1075.25 -277.648 1025.75 -342.659 999.394 -298.81C996.739 -294.435 995.001 -289.246 993.537 -284.261C998.663 -285.787 1003.69 -287.211 1008.82 -288.737C998.295 -302.167 987.224 -314.986 976.062 -327.703C949.71 -357.614 922.074 -386.304 893.162 -413.163C858.209 -445.516 821.332 -475.936 781.346 -500.149C744.472 -522.532 703.57 -541.048 661.116 -542.879C620.854 -544.609 582.881 -527.72 555.339 -494.859C551.315 -489.975 547.562 -484.889 543.994 -479.598C546.648 -481.328 549.302 -482.956 551.863 -484.685C524.23 -485.703 496.597 -486.923 468.964 -488.144C446.819 -489.162 424.495 -491.4 402.35 -491.196C376.914 -490.993 351.75 -485.295 328.327 -474.206C309.479 -465.253 292.183 -452.332 279.74 -434.019C273.152 -424.354 270.041 -413.57 265.192 -402.989C260.617 -393.019 253.845 -384.168 245.428 -377.86C238.29 -372.57 230.239 -368.907 222.644 -364.532C215.415 -360.463 208.277 -356.088 201.323 -351.51C188.147 -342.862 174.788 -333.095 164.266 -320.582C155.116 -309.594 147.43 -294.536 152.828 -279.377C155.939 -270.629 162.161 -264.219 169.207 -259.335C173.69 -256.181 178.54 -253.842 183.481 -251.602C186.043 -250.485 188.605 -249.466 191.167 -248.45C192.722 -247.838 194.37 -247.33 195.925 -246.721C197.481 -246.21 200.317 -243.871 199.219 -246.515C198.761 -248.245 198.395 -249.974 197.938 -251.602C199.128 -253.433 199.951 -254.756 200.774 -256.079C191.258 -248.552 200.408 -230.95 210.015 -238.48C215.78 -243.056 218.8 -250.993 214.775 -258.317C210.566 -265.847 200.5 -266.558 193.546 -269.306C188.33 -271.34 183.298 -273.882 178.631 -277.139C175.337 -279.479 172.592 -282.43 170.945 -284.871C169.573 -287.008 169.298 -288.534 169.481 -290.976C169.664 -293.824 168.932 -288.941 169.573 -291.79C169.756 -292.502 169.939 -293.316 170.122 -294.028C170.213 -294.435 170.854 -296.368 170.305 -294.74C170.762 -295.961 171.403 -297.182 172.043 -298.402C175.978 -305.829 182.474 -312.239 189.063 -317.936C204.892 -331.671 223.009 -342.252 241.036 -352.019C253.114 -358.53 264.002 -366.364 272.602 -378.165C281.661 -390.679 284.863 -405.94 292.734 -419.064C307.647 -443.99 334.823 -457.623 360.078 -464.846C390.548 -473.595 421.384 -470.136 452.402 -468.712C478.114 -467.491 503.826 -466.372 529.538 -465.355C536.308 -465.05 543.078 -464.643 549.851 -464.541C551.497 -464.541 552.961 -464.337 554.608 -464.846C559.275 -466.27 562.842 -473.494 565.953 -477.36C576.385 -490.484 587.365 -500.658 601.181 -508.797C612.529 -515.41 628.083 -520.497 640.162 -521.921C671.088 -525.584 700.368 -517.75 729.465 -505.236C793.607 -477.563 851.345 -428.119 902.769 -377.555C935.251 -345.609 965.173 -311.222 994.818 -276.122C995.275 -275.615 995.643 -275.002 996.1 -274.495C1000.86 -268.491 1009.46 -272.153 1011.38 -278.971C1012.66 -283.447 1013.03 -285.38 1016.14 -289.857C1014.4 -287.313 1018.88 -292.4 1017.6 -291.383C1016.41 -290.365 1018.52 -291.993 1018.79 -292.095C1020.8 -293.519 1018.52 -292.197 1019.34 -292.4C1020.07 -292.603 1020.71 -292.807 1021.44 -293.011C1022.82 -293.417 1019.34 -293.112 1021.44 -292.909C1022.18 -292.807 1023 -292.909 1023.73 -292.909C1025.75 -292.909 1022.09 -293.519 1024.46 -292.807C1026.02 -292.298 1027.48 -291.891 1029.04 -291.383C1031.24 -290.569 1028.13 -291.891 1029.68 -291.077C1030.78 -290.467 1031.88 -289.958 1032.88 -289.246C1041.49 -284.159 1046.33 -279.276 1053.47 -271.95C1061.61 -263.505 1069.12 -254.35 1076.25 -244.989C1089.8 -227.287 1101.78 -209.076 1113.77 -189.645C1120.08 -179.369 1126.58 -169.195 1131.52 -158.105C1158.88 -96.4522 1166.56 -24.7275 1169.22 43.132C1171.87 111.195 1168.4 179.46 1161.53 247.117C1157.96 282.319 1153.3 316.706 1147.62 352.111C1147.53 352.619 1147.44 353.231 1147.35 353.739C1145.8 362.386 1153.48 369.711 1160.8 365.236C1163.36 363.608 1166.02 362.082 1168.85 360.962C1170.04 360.454 1171.23 360.047 1172.42 359.74C1173.06 359.537 1173.7 359.435 1174.34 359.232C1176.08 358.927 1174.07 359.232 1174.98 359.131C1175.9 359.131 1176.81 359.029 1177.73 359.131C1175.44 358.927 1178.19 359.232 1178.73 359.537C1177 358.521 1178.55 359.334 1179.1 359.946C1178.28 358.927 1179.1 359.537 1179.83 360.86C1178.19 357.706 1181.48 365.236 1180.38 361.98C1181.11 364.014 1181.48 366.15 1181.85 368.184C1182.21 370.12 1181.85 368.39 1181.85 368.083C1181.94 368.695 1181.94 369.304 1182.03 369.812C1182.12 370.831 1182.12 371.951 1182.21 372.967C1182.3 375.41 1182.21 377.952 1182.12 380.395C1181.75 388.43 1180.84 394.231 1178.83 403.387C1177 412.034 1175.35 420.783 1172.7 429.227C1161.53 465.245 1138.2 495.868 1114.23 522.217C1089.25 549.584 1061.52 573.492 1032.61 595.366C1019.8 605.032 1003.14 613.07 999.576 631.584C997.747 641.149 999.211 651.526 1004.15 659.767C1006.53 663.632 1009.64 666.685 1011.65 670.858C1013.3 674.317 1014.22 678.283 1014.67 682.047C1016.87 701.275 1009.18 719.791 997.107 733.424C982.832 749.5 963.067 760.69 943.762 768.83C920.978 778.495 897.278 785.109 873.398 790.094C841.555 796.809 810.352 800.166 777.505 802.404C776.954 802.404 776.406 802.404 775.949 802.505C771.1 802.708 766.616 807.084 766.799 812.679C767.073 822.548 765.974 831.399 761.95 838.825C760.118 842.284 758.839 843.81 755.543 847.168C754.079 848.592 750.694 850.934 747.491 852.765C742.642 855.409 732.302 858.157 726.631 858.868C717.938 859.886 709.062 859.886 700.368 859.172C686.004 858.055 672.278 855.409 657.363 851.239C653.613 850.22 649.86 849.1 646.201 847.881C645.927 847.78 645.559 847.678 645.285 847.577C645.193 847.577 645.102 847.577 645.102 847.475C646.84 848.084 642.816 846.355 642.082 846.05C635.221 843.099 627.992 841.674 620.763 840.862C597.248 838.317 572.452 844.321 550.399 853.273C542.165 856.63 531.459 856.326 521.302 856.326C507.211 856.224 493.12 854.596 479.395 851.34C434.101 840.554 392.56 814.104 358.34 779.819C349.738 771.171 341.502 762.115 334.001 752.35C329.7 746.752 327.779 739.53 324.026 732.713C315.333 716.741 305.178 701.785 293.922 687.949C284.589 676.452 273.883 665.057 258.968 671.67C252.381 674.621 247.257 680.419 244.969 687.848C242.591 695.274 242.226 702.598 238.381 709.516C231.611 721.724 219.257 729.762 206.356 730.273C195.102 730.781 183.389 726.506 172.958 722.133C135.352 706.362 108.999 670.756 92.2547 631.381C84.1112 612.255 78.072 591.704 73.4053 570.95C71.2094 561.284 69.3794 551.517 67.8239 541.648C67.0919 536.97 66.3598 532.188 65.7194 527.507C65.0789 522.623 64.8959 521.097 64.3468 515.807C62.2423 496.173 61.1443 476.435 61.2356 456.595C61.3272 424.448 57.5759 391.585 48.9746 360.86C43.4845 341.226 41.1057 321.386 42.8441 300.835C43.7591 290.458 45.9553 280.285 48.9746 270.415C51.9028 260.648 56.3863 251.696 59.6802 242.03C63.1573 231.754 65.9023 219.038 64.5298 207.948C63.7064 201.03 59.4059 196.758 52.9092 198.18C44.0336 200.011 34.5176 200.42 26.6484 198.383C19.8774 196.654 13.1065 193.093 8.71436 188.923C-2.72328 178.036 -8.48789 163.692 -12.3309 147.209C-18.9189 119.334 -19.1019 88.4064 -16.2654 58.4943C-16.0824 56.968 -15.9909 55.5432 -15.8079 54.0196C-15.5334 51.17 -16.1739 56.1554 -15.8994 54.8322C-13.0629 39.2667 -10.7754 23.9044 -6.74923 8.64355C0.845169 -19.9453 12.0083 -47.1094 26.2825 -72.3408C50.7133 -115.477 83.928 -152.205 121.077 -181.81C147.155 -202.567 175.246 -220.065 204.252 -235.224C206.356 -236.341 208.46 -237.461 210.566 -238.48C220.721 -244.075 211.388 -261.674 200.774 -256.079Z" fill="#DBADFF"/>
<path d="M747.005 -115.04C751.541 -112.83 788.505 -93.1014 812.837 -71.9554C812.837 -71.9554 842.314 -41.3226 831.431 -69.2071C820.55 -97.0886 809.668 -124.97 832.978 -121.525C856.2 -118.092 912.181 -41.259 921.795 45.8607C932.355 142.049 887.074 401.895 640.109 370.626C640.109 370.626 564.191 359.405 519.838 268.687C519.838 268.687 508.957 240.806 534.833 262.18C560.616 283.543 572.221 292.238 584.442 295.789C584.442 295.789 531.039 254.538 550.452 250.429C550.452 250.429 590.203 273.854 612.088 275.344C633.97 276.833 683.695 270.123 683.695 270.123C683.695 270.123 729.521 255.857 697.975 282.702L720.472 279.048C720.472 279.048 736.599 276.198 740.814 280.311C745.03 284.423 705.669 310.218 686.051 316.041C686.051 316.041 825.874 306.943 856.342 118.498C856.342 118.498 877.392 17.3335 773.079 -78.3442C761.429 -88.9948 748.516 -97.5748 734.88 -104.722C719.318 -112.769 715.922 -129.898 747.005 -115.04Z" fill="#A031F7"/>
<path d="M499.055 23.8078C499.055 23.8078 434.178 71.3358 462.941 158.231C462.941 158.231 469.925 186.272 480.097 208.053C480.097 208.053 492.926 250.025 467.861 215.726C442.799 181.427 391.105 77.9503 490.088 16.012C490.113 16.1099 533.034 -1.01172 499.055 23.8078Z" fill="#A031F7"/>
<path d="M90.1502 304.904C96.0122 304.904 100.764 292.744 100.764 277.74C100.764 262.738 96.0122 250.576 90.1502 250.576C84.2882 250.576 79.5362 262.738 79.5362 277.74C79.5362 292.744 84.2882 304.904 90.1502 304.904Z" fill="#A031F7"/>
<path d="M90.1499 312.536C79.8102 312.536 72.6731 298.189 72.6731 277.74C72.6731 257.291 79.9018 242.947 90.1499 242.947C100.398 242.947 107.627 257.291 107.627 277.74C107.627 298.189 100.398 312.536 90.1499 312.536ZM90.1499 259.02C88.5944 261.463 86.3983 267.972 86.3983 277.74C86.3983 287.508 88.5944 293.918 90.1499 296.46C91.7054 294.019 93.9015 287.508 93.9015 277.74C93.9015 267.972 91.614 261.565 90.1499 259.02Z" fill="#A031F7"/>
<path d="M1025.47 49.0343C1025.38 47.8127 1025.38 46.591 1025.38 45.3694C1025.47 37.0293 1013.3 3.45513 1038.56 -3.56445C1038.56 -3.56445 1063.63 -12.8241 1061.89 39.0636C1060.24 91.0502 1050.18 142.938 1041.85 135.509C1034.35 128.899 1026.93 62.7687 1025.47 49.0343Z" fill="#A031F7"/>
<path d="M1132.34 55.3401C1127.59 48.6252 1117.8 52.1858 1117.34 60.7317C1114.41 114.349 1094.55 344.685 962.611 508.381C962.611 508.381 900.024 601.167 967.642 577.97C1018.7 560.472 1136.74 485.285 1124.11 416.207C1123.56 413.459 1120.91 411.831 1118.62 412.951L1098.22 422.208C1089.25 426.279 1080.83 415.188 1086.05 406.033C1103.8 374.696 1129.6 322.608 1140.4 269.092C1158.6 178.648 1151.01 81.7931 1132.34 55.3401Z" fill="#A031F7"/>
<path d="M46.6875 60.5286C46.6875 60.5286 44.217 16.0695 59.4976 -24.0137C59.4976 -24.0137 68.5561 -72.7471 39.8249 -43.0409C30.8577 -33.7813 23.7208 -22.4901 18.5967 -10.0762C8.07406 15.6632 -7.20658 66.2277 9.62953 116.078C9.72112 115.977 41.3804 189.126 46.6875 60.5286Z" fill="#A031F7"/>
<path d="M581.445 90.9935C581.445 90.9935 602.273 68.9215 611.196 95.3792C620.117 121.835 636.02 147.761 650.994 131.642C665.967 115.523 660.667 52.048 608.906 44.1415C557.149 36.236 477.675 91.6375 530.764 186.01C583.808 280.298 766.402 273.424 791.097 120.741C815.793 -31.9402 692.199 -172.266 530.006 -164.832C367.815 -157.399 206.96 -73.723 236.489 239.369C236.489 239.369 264.028 407.723 366.846 472.617C366.846 472.617 482.352 557.518 448.132 501.222C448.132 501.222 596.077 575.983 713.804 524.485C718.536 522.375 723.491 521.068 728.081 518.696C740.792 512.18 750.256 507.369 748.753 502.436C748.753 502.436 747.832 493.069 706.138 498.966C702.437 499.432 698.67 498.992 695.228 497.382C691.19 495.456 688.874 492.377 701.531 489.107C701.531 489.107 800.318 467.089 860.843 420.493C921.368 373.897 902.974 367.591 871.028 392.019C839.083 416.449 685.814 497.762 530.707 432.446C530.707 432.446 459.888 403.232 391.597 305.277C391.597 305.277 375.688 277.572 376.486 293.794C377.283 310.02 369.737 299.28 357.269 273.183C344.88 247.036 344.321 202.125 350.987 189.802C350.987 189.802 351.852 178.407 360.641 196.157C369.429 213.908 375.912 214.425 373.314 188.594C370.719 162.761 345.436 28.0787 465.511 -42.707C465.511 -42.707 641.357 -148.575 718.857 70.6105C719.33 72.0759 717.512 73.0566 716.804 71.7524C709.626 58.1479 698.275 38.4336 690.253 31.9355C677.656 21.7364 657.825 11.4034 679.511 57.8133C701.247 104.309 665.104 213.69 590.226 164.019C546.24 134.611 581.445 90.9935 581.445 90.9935Z" fill="#A031F7"/>
<path d="M164.327 0.167925C172.073 3.44284 181.803 -3.9938 186.058 -16.4406C190.315 -28.8892 187.485 -41.6343 179.737 -44.9074C171.991 -48.1821 162.261 -40.7456 158.006 -28.2988C153.749 -15.8501 156.579 -3.1051 164.327 0.167925Z" fill="#A031F7"/>
</g>
<rect width="1153" height="262" fill="url(#paint1_linear_456_391)"/>
<defs>
<linearGradient id="paint0_linear_456_391" x1="-812.586" y1="131" x2="1172.68" y2="77.6051" gradientUnits="userSpaceOnUse">
<stop stop-color="#151317"/>
<stop offset="1" stop-color="#361A4C"/>
</linearGradient>
<linearGradient id="paint1_linear_456_391" x1="-218.548" y1="95.4999" x2="1172.44" y2="70.8274" gradientUnits="userSpaceOnUse">
<stop stop-color="#151317"/>
<stop offset="1" stop-color="#361A4C" stop-opacity="0"/>
</linearGradient>
</defs>
</svg>
